<?xml version="1.0" encoding="UTF-8" standalone="no"?>
<!-- Created with Inkscape (http://www.inkscape.org/) -->

<svg
   xmlns:dc="http://purl.org/dc/elements/1.1/"
   xmlns:cc="http://creativecommons.org/ns#"
   xmlns:rdf="http://www.w3.org/1999/02/22-rdf-syntax-ns#"
   xmlns:svg="http://www.w3.org/2000/svg"
   xmlns="http://www.w3.org/2000/svg"
   xmlns:sodipodi="http://sodipodi.sourceforge.net/DTD/sodipodi-0.dtd"
   xmlns:inkscape="http://www.inkscape.org/namespaces/inkscape"
   width="744.09448819"
   height="1052.3622047"
   id="svg2"
   version="1.1"
   inkscape:version="0.48.4 r9939"
   sodipodi:docname="attributes.svg"
   inkscape:export-filename="/home/diego/Repositories/assets/libpll/images/attributes.png"
   inkscape:export-xdpi="120"
   inkscape:export-ydpi="120">
  <defs
     id="defs4" />
  <sodipodi:namedview
     id="base"
     pagecolor="#ffffff"
     bordercolor="#666666"
     borderopacity="1.0"
     inkscape:pageopacity="0.0"
     inkscape:pageshadow="2"
     inkscape:zoom="2.8"
     inkscape:cx="241.18488"
     inkscape:cy="1027.1941"
     inkscape:document-units="px"
     inkscape:current-layer="layer1"
     showgrid="false"
     inkscape:window-width="1865"
     inkscape:window-height="1056"
     inkscape:window-x="1975"
     inkscape:window-y="24"
     inkscape:window-maximized="1" />
  <metadata
     id="metadata7">
    <rdf:RDF>
      <cc:Work
         rdf:about="">
        <dc:format>image/svg+xml</dc:format>
        <dc:type
           rdf:resource="http://purl.org/dc/dcmitype/StillImage" />
        <dc:title></dc:title>
      </cc:Work>
    </rdf:RDF>
  </metadata>
  <g
     inkscape:label="Layer 1"
     inkscape:groupmode="layer"
     id="layer1">
    <rect
       style="fill:#ffe6d5;stroke:none"
       id="rect3975"
       width="22.59815"
       height="15.469322"
       x="111.74812"
       y="55.341621" />
    <rect
       y="55.341621"
       x="21.086935"
       height="15.469322"
       width="90.783447"
       id="rect3973"
       style="fill:#d5e5ff;stroke:none" />
    <rect
       y="55.341621"
       x="293.32303"
       height="15.469322"
       width="22.345581"
       id="rect3919"
       style="fill:none;stroke:#000000;stroke-width:1.02199996000000004;stroke-linecap:butt;stroke-linejoin:miter;stroke-miterlimit:4;stroke-opacity:1;stroke-dasharray:none;stroke-dashoffset:1.60000000000000009" />
    <rect
       style="fill:#d7f4e3;stroke:none"
       id="rect3977"
       width="90.783447"
       height="15.469322"
       x="134.7291"
       y="55.341621" />
    <rect
       style="fill:none;stroke:#000000;stroke-width:1.02199996;stroke-linecap:butt;stroke-linejoin:miter;stroke-miterlimit:4;stroke-opacity:1;stroke-dasharray:none;stroke-dashoffset:1.6"
       id="rect3917"
       width="249.62994"
       height="15.469322"
       x="21.086935"
       y="55.341621" />
    <path
       style="fill:none;stroke:#000000;stroke-width:1px;stroke-linecap:butt;stroke-linejoin:miter;stroke-opacity:1"
       d="m 248.06865,54.936521 0,15.735312"
       id="path3767"
       inkscape:connector-curvature="0"
       sodipodi:nodetypes="cc" />
    <path
       inkscape:connector-curvature="0"
       id="path3769"
       d="m 225.37892,54.936521 0,15.735312"
       style="fill:none;stroke:#000000;stroke-width:1px;stroke-linecap:butt;stroke-linejoin:miter;stroke-opacity:1"
       sodipodi:nodetypes="cc" />
    <path
       style="fill:none;stroke:#000000;stroke-width:1px;stroke-linecap:butt;stroke-linejoin:miter;stroke-opacity:1"
       d="m 202.6892,54.936521 0,15.735312"
       id="path3771"
       inkscape:connector-curvature="0"
       sodipodi:nodetypes="cc" />
    <path
       inkscape:connector-curvature="0"
       id="path3773"
       d="m 179.99946,54.936521 0,15.735312"
       style="fill:none;stroke:#000000;stroke-width:1px;stroke-linecap:butt;stroke-linejoin:miter;stroke-opacity:1"
       sodipodi:nodetypes="cc" />
    <path
       style="fill:none;stroke:#000000;stroke-width:1px;stroke-linecap:butt;stroke-linejoin:miter;stroke-opacity:1"
       d="m 157.30974,54.936521 0,15.735312"
       id="path3775"
       inkscape:connector-curvature="0"
       sodipodi:nodetypes="cc" />
    <path
       inkscape:connector-curvature="0"
       id="path3777"
       d="m 134.62,54.936521 0,15.735312"
       style="fill:none;stroke:#000000;stroke-width:1px;stroke-linecap:butt;stroke-linejoin:miter;stroke-opacity:1"
       sodipodi:nodetypes="cc" />
    <path
       style="fill:none;stroke:#000000;stroke-width:1px;stroke-linecap:butt;stroke-linejoin:miter;stroke-opacity:1"
       d="m 111.93027,54.936521 0,15.735312"
       id="path3779"
       inkscape:connector-curvature="0"
       sodipodi:nodetypes="cc" />
    <path
       inkscape:connector-curvature="0"
       id="path3781"
       d="m 89.24054,54.936521 0,15.735312"
       style="fill:none;stroke:#000000;stroke-width:1px;stroke-linecap:butt;stroke-linejoin:miter;stroke-opacity:1"
       sodipodi:nodetypes="cc" />
    <path
       style="fill:none;stroke:#000000;stroke-width:1px;stroke-linecap:butt;stroke-linejoin:miter;stroke-opacity:1"
       d="m 43.861072,54.936521 0,15.735312"
       id="path3807"
       inkscape:connector-curvature="0"
       sodipodi:nodetypes="cc" />
    <path
       inkscape:connector-curvature="0"
       id="path3813"
       d="m 66.550804,54.936521 0,15.735312"
       style="fill:none;stroke:#000000;stroke-width:1px;stroke-linecap:butt;stroke-linejoin:miter;stroke-opacity:1"
       sodipodi:nodetypes="cc" />
    <g
       id="g3949"
       transform="translate(12.626907,42.931483)">
      <text
         sodipodi:linespacing="125%"
         id="text3821"
         y="24.53521"
         x="16.854965"
         style="font-size:14.3249855px;font-style:normal;font-variant:normal;font-weight:normal;font-stretch:normal;line-height:125%;letter-spacing:0px;word-spacing:0px;fill:#000000;fill-opacity:1;stroke:none;font-family:Symbol;-inkscape-font-specification:Symbol"
         xml:space="preserve"><tspan
           y="24.53521"
           x="16.854965"
           id="tspan3823"
           sodipodi:role="line">0</tspan></text>
      <text
         sodipodi:linespacing="125%"
         id="text3825"
         y="24.53521"
         x="39.396545"
         style="font-size:14.3249855px;font-style:normal;font-variant:normal;font-weight:normal;font-stretch:normal;line-height:125%;letter-spacing:0px;word-spacing:0px;fill:#000000;fill-opacity:1;stroke:none;font-family:Symbol;-inkscape-font-specification:Symbol"
         xml:space="preserve"><tspan
           y="24.53521"
           x="39.396545"
           id="tspan3827"
           sodipodi:role="line">1</tspan></text>
      <text
         sodipodi:linespacing="125%"
         id="text3829"
         y="24.628323"
         x="62.081375"
         style="font-size:14.3249855px;font-style:normal;font-variant:normal;font-weight:normal;font-stretch:normal;line-height:125%;letter-spacing:0px;word-spacing:0px;fill:#000000;fill-opacity:1;stroke:none;font-family:Symbol;-inkscape-font-specification:Symbol"
         xml:space="preserve"><tspan
           y="24.628323"
           x="62.081375"
           id="tspan3831"
           sodipodi:role="line">2</tspan></text>
      <text
         sodipodi:linespacing="125%"
         id="text3833"
         y="24.53521"
         x="84.90229"
         style="font-size:14.3249855px;font-style:normal;font-variant:normal;font-weight:normal;font-stretch:normal;line-height:125%;letter-spacing:0px;word-spacing:0px;fill:#000000;fill-opacity:1;stroke:none;font-family:Symbol;-inkscape-font-specification:Symbol"
         xml:space="preserve"><tspan
           y="24.53521"
           x="84.90229"
           id="tspan3835"
           sodipodi:role="line">3</tspan></text>
      <text
         sodipodi:linespacing="125%"
         id="text3837"
         y="24.585346"
         x="107.45819"
         style="font-size:14.3249855px;font-style:normal;font-variant:normal;font-weight:normal;font-stretch:normal;line-height:125%;letter-spacing:0px;word-spacing:0px;fill:#000000;fill-opacity:1;stroke:none;font-family:Symbol;-inkscape-font-specification:Symbol"
         xml:space="preserve"><tspan
           y="24.585346"
           x="107.45819"
           id="tspan3839"
           sodipodi:role="line">4</tspan></text>
      <text
         sodipodi:linespacing="125%"
         id="text3841"
         y="24.628323"
         x="130.186"
         style="font-size:14.3249855px;font-style:normal;font-variant:normal;font-weight:normal;font-stretch:normal;line-height:125%;letter-spacing:0px;word-spacing:0px;fill:#000000;fill-opacity:1;stroke:none;font-family:Symbol;-inkscape-font-specification:Symbol"
         xml:space="preserve"><tspan
           y="24.628323"
           x="130.186"
           id="tspan3843"
           sodipodi:role="line">5</tspan></text>
      <text
         sodipodi:linespacing="125%"
         id="text3845"
         y="24.528049"
         x="152.59149"
         style="font-size:14.3249855px;font-style:normal;font-variant:normal;font-weight:normal;font-stretch:normal;line-height:125%;letter-spacing:0px;word-spacing:0px;fill:#000000;fill-opacity:1;stroke:none;font-family:Symbol;-inkscape-font-specification:Symbol"
         xml:space="preserve"><tspan
           y="24.528049"
           x="152.59149"
           id="tspan3847"
           sodipodi:role="line">6</tspan></text>
      <text
         sodipodi:linespacing="125%"
         id="text3849"
         y="24.53521"
         x="197.9325"
         style="font-size:14.3249855px;font-style:normal;font-variant:normal;font-weight:normal;font-stretch:normal;line-height:125%;letter-spacing:0px;word-spacing:0px;fill:#000000;fill-opacity:1;stroke:none;font-family:Symbol;-inkscape-font-specification:Symbol"
         xml:space="preserve"><tspan
           y="24.53521"
           x="197.9325"
           id="tspan3851"
           sodipodi:role="line">8</tspan></text>
      <text
         sodipodi:linespacing="125%"
         id="text3853"
         y="24.485073"
         x="175.45538"
         style="font-size:14.3249855px;font-style:normal;font-variant:normal;font-weight:normal;font-stretch:normal;line-height:125%;letter-spacing:0px;word-spacing:0px;fill:#000000;fill-opacity:1;stroke:none;font-family:Symbol;-inkscape-font-specification:Symbol"
         xml:space="preserve"><tspan
           y="24.485073"
           x="175.45538"
           id="tspan3855"
           sodipodi:role="line">7</tspan></text>
      <text
         sodipodi:linespacing="125%"
         id="text3857"
         y="24.53521"
         x="220.58867"
         style="font-size:14.3249855px;font-style:normal;font-variant:normal;font-weight:normal;font-stretch:normal;line-height:125%;letter-spacing:0px;word-spacing:0px;fill:#000000;fill-opacity:1;stroke:none;font-family:Symbol;-inkscape-font-specification:Symbol"
         xml:space="preserve"><tspan
           y="24.53521"
           x="220.58867"
           id="tspan3859"
           sodipodi:role="line">9</tspan></text>
      <text
         sodipodi:linespacing="125%"
         id="text3861"
         y="24.53521"
         x="238.94736"
         style="font-size:14.3249855px;font-style:normal;font-variant:normal;font-weight:normal;font-stretch:normal;line-height:125%;letter-spacing:0px;word-spacing:0px;fill:#000000;fill-opacity:1;stroke:none;font-family:Symbol;-inkscape-font-specification:Symbol"
         xml:space="preserve"><tspan
           y="24.53521"
           x="238.94736"
           id="tspan3863"
           sodipodi:role="line">10</tspan></text>
    </g>
    <text
       sodipodi:linespacing="125%"
       id="text3921"
       y="67.46669"
       x="297.84186"
       style="font-size:14.3249855px;font-style:normal;font-variant:normal;font-weight:normal;font-stretch:normal;line-height:125%;letter-spacing:0px;word-spacing:0px;fill:#000000;fill-opacity:1;stroke:none;font-family:Symbol;-inkscape-font-specification:Symbol"
       xml:space="preserve"><tspan
         y="67.46669"
         x="297.84186"
         id="tspan3923"
         sodipodi:role="line">31</tspan></text>
    <text
       xml:space="preserve"
       style="font-size:20px;font-style:normal;font-variant:normal;font-weight:normal;font-stretch:normal;line-height:125%;letter-spacing:0px;word-spacing:0px;fill:#2b1100;fill-opacity:1;stroke:none;font-family:Symbol;-inkscape-font-specification:Symbol"
       x="274.50174"
       y="63.946281"
       id="text3865"
       sodipodi:linespacing="125%"><tspan
         sodipodi:role="line"
         id="tspan3867"
         x="274.50174"
         y="63.946281">...</tspan></text>
    <path
       style="font-size:20px;font-style:normal;font-variant:normal;font-weight:normal;font-stretch:normal;line-height:125%;letter-spacing:0px;word-spacing:0px;fill:#004455;fill-opacity:1;stroke:none;font-family:Symbol;-inkscape-font-specification:Symbol"
       sodipodi:nodetypes="cccccssccccssccccssccsc"
       inkscape:connector-curvature="0"
       id="path3984"
       d="m 23.132547,76.745738 c -0.9,0 -1.200002,-0.160001 -1.500001,-0.8 -0.2,-0.46 -0.3,-0.900001 -0.36,-1.78 l -0.48,0 c 0,1.939998 0.06,2.420001 0.36,3.12 0.359999,0.819999 1.000001,1.22 1.960001,1.22 l 40.970714,0 c 0.699999,0 0.98,0.14 1.28,0.64 0.279999,0.479999 0.36,0.780001 0.52,1.78 l 0.48,0 c 0.12,-0.919999 0.2,-1.240001 0.44,-1.72 0.279999,-0.54 0.58,-0.7 1.36,-0.7 l 40.956429,0 c 1.12,0 1.82,-0.380001 2.16,-1.18 0.32,-0.699999 0.38,-1.200002 0.38,-3.18 l -0.48,0 c -0.02,0.679999 -0.12,1.22 -0.3,1.66 -0.3,0.759999 -0.6,0.94 -1.56,0.94 l -40.956429,0 c -0.78,0 -1.380001,0.28 -1.7,0.84 -0.26,0.439999 -0.38,0.760001 -0.54,1.68 -0.36,-1.919998 -0.880002,-2.52 -2.14,-2.52 l -40.850714,0" />
    <path
       style="font-size:20px;font-style:normal;font-variant:normal;font-weight:normal;font-stretch:normal;line-height:125%;letter-spacing:0px;word-spacing:0px;fill:#16502d;fill-opacity:1;stroke:none;font-family:Symbol;-inkscape-font-specification:Symbol"
       d="m 136.77471,76.745738 c -0.9,0 -1.2,-0.160001 -1.5,-0.8 -0.2,-0.46 -0.3,-0.900001 -0.36,-1.78 l -0.48,0 c 0,1.939998 0.06,2.420001 0.36,3.12 0.36,0.819999 1,1.22 1.96,1.22 l 40.97071,0 c 0.7,0 0.98,0.14 1.28,0.64 0.28,0.479999 0.36,0.780001 0.52,1.78 l 0.48,0 c 0.12,-0.919999 0.2,-1.240001 0.44,-1.72 0.28,-0.54 0.58,-0.7 1.36,-0.7 l 40.95643,0 c 1.12,0 1.82,-0.380001 2.16,-1.18 0.32,-0.699999 0.38,-1.200002 0.38,-3.18 l -0.48,0 c -0.02,0.679999 -0.12,1.22 -0.3,1.66 -0.3,0.759999 -0.6,0.94 -1.56,0.94 l -40.95643,0 c -0.78,0 -1.38,0.28 -1.7,0.84 -0.26,0.439999 -0.38,0.760001 -0.54,1.68 -0.36,-1.919998 -0.88,-2.52 -2.14,-2.52 l -40.85071,0"
       id="path3986"
       inkscape:connector-curvature="0"
       sodipodi:nodetypes="cccccssccccssccccssccsc" />
    <path
       style="font-size:20px;font-style:normal;font-variant:normal;font-weight:normal;font-stretch:normal;line-height:125%;letter-spacing:0px;word-spacing:0px;fill:#552200;fill-opacity:1;stroke:none;font-family:Symbol;-inkscape-font-specification:Symbol"
       sodipodi:nodetypes="cccccssccccssccccssccsc"
       inkscape:connector-curvature="0"
       id="path3988"
       d="m 114.17255,76.745738 c -0.9,0 -1.2,-0.160001 -1.5,-0.8 -0.2,-0.46 -0.3,-0.900001 -0.36,-1.78 l -0.48,0 c 0,1.939998 0.06,2.420001 0.36,3.12 0.36,0.819999 1,1.22 1.96,1.22 l 7.5094,0 c 0.7,0 0.98,0.14 1.28,0.64 0.28,0.479999 0.36,0.780001 0.52,1.78 l 0.48,0 c 0.12,-0.919999 0.2,-1.240001 0.44,-1.72 0.28,-0.54 0.58,-0.7 1.36,-0.7 l 5.9276,0 c 1.12,0 1.82,-0.380001 2.16,-1.18 0.32,-0.699999 0.38,-1.200002 0.38,-3.18 l -0.48,0 c -0.02,0.679999 -0.12,1.22 -0.3,1.66 -0.3,0.759999 -0.6,0.94 -1.56,0.94 l -5.9276,0 c -0.78,0 -1.38,0.28 -1.7,0.84 -0.26,0.439999 -0.38,0.760001 -0.54,1.68 -0.36,-1.919998 -0.88,-2.52 -2.14,-2.52 l -7.3894,0" />
    <text
       xml:space="preserve"
       style="font-size:9.69127560000000088px;font-style:normal;font-variant:normal;font-weight:normal;font-stretch:normal;line-height:125%;letter-spacing:0px;word-spacing:0px;fill:#004455;fill-opacity:1;stroke:none;font-family:Symbol;-inkscape-font-specification:Symbol"
       x="98.661606"
       y="45.842354"
       id="text3990"
       sodipodi:linespacing="125%"
       transform="matrix(0.8660254,0.5,-0.5,0.8660254,0,0)"><tspan
         sodipodi:role="line"
         id="tspan3992"
         x="98.661606"
         y="45.842354"
         style="font-style:normal;font-variant:normal;font-weight:normal;font-stretch:normal;fill:#004455;font-family:Arial;-inkscape-font-specification:Arial">Architecture</tspan></text>
    <text
       sodipodi:linespacing="125%"
       id="text3997"
       y="-10.998303"
       x="197.11252"
       style="font-size:9.69127560000000088px;font-style:normal;font-variant:normal;font-weight:normal;font-stretch:normal;line-height:125%;letter-spacing:0px;word-spacing:0px;fill:#16502d;fill-opacity:1;stroke:none;font-family:Symbol;-inkscape-font-specification:Symbol"
       xml:space="preserve"
       transform="matrix(0.8660254,0.5,-0.5,0.8660254,0,0)"><tspan
         style="font-style:normal;font-variant:normal;font-weight:normal;font-stretch:normal;fill:#16502d;font-family:Arial;-inkscape-font-specification:Arial"
         y="-10.998303"
         x="197.11252"
         id="tspan3999"
         sodipodi:role="line">Asc bias correction</tspan></text>
    <text
       xml:space="preserve"
       style="font-size:9.69127560000000088px;font-style:normal;font-variant:normal;font-weight:normal;font-stretch:normal;line-height:125%;letter-spacing:0px;word-spacing:0px;fill:#552200;fill-opacity:1;stroke:none;font-family:Symbol;-inkscape-font-specification:Symbol"
       x="147.55527"
       y="17.474249"
       id="text4001"
       sodipodi:linespacing="125%"
       transform="matrix(0.8660254,0.5,-0.5,0.8660254,0,0)"><tspan
         sodipodi:role="line"
         id="tspan4003"
         x="147.55527"
         y="17.474249"
         style="font-style:normal;font-variant:normal;font-weight:normal;font-stretch:normal;fill:#552200;font-family:Arial;-inkscape-font-specification:Arial">Tip vectors</tspan></text>
    <text
       transform="matrix(0.70710678,-0.70710678,0.70710678,0.70710678,0,0)"
       sodipodi:linespacing="125%"
       id="text4005"
       y="59.876667"
       x="-13.548197"
       style="font-size:9.69127560000000088px;font-style:normal;font-variant:normal;font-weight:normal;font-stretch:normal;line-height:125%;letter-spacing:0px;word-spacing:0px;fill:#004455;fill-opacity:1;stroke:none;font-family:Symbol;-inkscape-font-specification:Symbol"
       xml:space="preserve"><tspan
         style="font-style:normal;font-variant:normal;font-weight:normal;font-stretch:normal;font-family:Arial;-inkscape-font-specification:Arial;fill:#004455"
         y="59.876667"
         x="-13.548197"
         id="tspan4007"
         sodipodi:role="line">SSE</tspan></text>
    <text
       xml:space="preserve"
       style="font-size:9.69127560000000088px;font-style:normal;font-variant:normal;font-weight:normal;font-stretch:normal;line-height:125%;letter-spacing:0px;word-spacing:0px;fill:#004455;fill-opacity:1;stroke:none;font-family:Symbol;-inkscape-font-specification:Symbol"
       x="2.6753483"
       y="76.100212"
       id="text4009"
       sodipodi:linespacing="125%"
       transform="matrix(0.70710678,-0.70710678,0.70710678,0.70710678,0,0)"><tspan
         sodipodi:role="line"
         id="tspan4011"
         x="2.6753483"
         y="76.100212"
         style="font-style:normal;font-variant:normal;font-weight:normal;font-stretch:normal;font-family:Arial;-inkscape-font-specification:Arial;fill:#004455">AVX</tspan></text>
    <text
       transform="matrix(0.70710678,-0.70710678,0.70710678,0.70710678,0,0)"
       sodipodi:linespacing="125%"
       id="text4013"
       y="92.158142"
       x="18.733276"
       style="font-size:9.69127560000000088px;font-style:normal;font-variant:normal;font-weight:normal;font-stretch:normal;line-height:125%;letter-spacing:0px;word-spacing:0px;fill:#004455;fill-opacity:1;stroke:none;font-family:Symbol;-inkscape-font-specification:Symbol"
       xml:space="preserve"><tspan
         style="font-style:normal;font-variant:normal;font-weight:normal;font-stretch:normal;font-family:Arial;-inkscape-font-specification:Arial;fill:#004455"
         y="92.158142"
         x="18.733276"
         id="tspan4015"
         sodipodi:role="line">AVX2</tspan></text>
    <text
       xml:space="preserve"
       style="font-size:9.69127560000000088px;font-style:normal;font-variant:normal;font-weight:normal;font-stretch:normal;line-height:125%;letter-spacing:0px;word-spacing:0px;fill:#004455;fill-opacity:1;stroke:none;font-family:Symbol;-inkscape-font-specification:Symbol"
       x="34.791195"
       y="108.21606"
       id="text4017"
       sodipodi:linespacing="125%"
       transform="matrix(0.70710678,-0.70710678,0.70710678,0.70710678,0,0)"><tspan
         sodipodi:role="line"
         id="tspan4019"
         x="34.791195"
         y="108.21606"
         style="font-style:normal;font-variant:normal;font-weight:normal;font-stretch:normal;font-family:Arial;-inkscape-font-specification:Arial;fill:#004455">AVX512</tspan></text>
    <text
       sodipodi:linespacing="125%"
       id="text4029"
       y="43.496208"
       x="138.68938"
       style="font-size:9.69127560000000088px;font-style:normal;font-variant:normal;font-weight:normal;font-stretch:normal;line-height:125%;letter-spacing:0px;word-spacing:0px;fill:#16502d;fill-opacity:1;stroke:none;font-family:Symbol;-inkscape-font-specification:Symbol"
       xml:space="preserve"><tspan
         style="font-style:normal;font-variant:normal;font-weight:normal;font-stretch:normal;font-family:Arial;-inkscape-font-specification:Arial;fill:#16502d"
         y="43.496208"
         x="138.68938"
         id="tspan4031"
         sodipodi:role="line">ABC algorithm</tspan></text>
    <text
       xml:space="preserve"
       style="font-size:9.69127560000000088px;font-style:normal;font-variant:normal;font-weight:normal;font-stretch:normal;line-height:125%;letter-spacing:0px;word-spacing:0px;fill:#16502d;fill-opacity:1;stroke:none;font-family:Symbol;-inkscape-font-specification:Symbol"
       x="114.46696"
       y="187.89185"
       id="text4033"
       sodipodi:linespacing="125%"
       transform="matrix(0.70710678,-0.70710678,0.70710678,0.70710678,0,0)"><tspan
         sodipodi:role="line"
         id="tspan4035"
         x="114.46696"
         y="187.89185"
         style="font-style:normal;font-variant:normal;font-weight:normal;font-stretch:normal;font-family:Arial;-inkscape-font-specification:Arial;fill:#16502d">ABC support</tspan></text>
    <path
       sodipodi:nodetypes="cccccssccccssccccssccsc"
       inkscape:connector-curvature="0"
       id="path4037"
       d="m 136.87996,51.182881 c -0.9,0 -1.2,0.160001 -1.5,0.8 -0.2,0.46 -0.3,0.900001 -0.36,1.78 l -0.48,0 c 0,-1.939998 0.06,-2.420001 0.36,-3.12 0.36,-0.819999 1,-1.22 1.96,-1.22 l 29.73276,0 c 0.7,0 0.98,-0.14 1.28,-0.64 0.28,-0.479999 0.36,-0.780001 0.52,-1.78 l 0.48,0 c 0.12,0.919999 0.2,1.240001 0.44,1.72 0.28,0.54 0.58,0.7 1.36,0.7 l 29.33968,0 c 1.12,0 1.82,0.380001 2.16,1.18 0.32,0.699999 0.38,1.200002 0.38,3.18 l -0.48,0 c -0.02,-0.679999 -0.12,-1.22 -0.3,-1.66 -0.3,-0.759999 -0.6,-0.94 -1.56,-0.94 l -29.33968,0 c -0.78,0 -1.38,-0.28 -1.7,-0.84 -0.26,-0.439999 -0.38,-0.760001 -0.54,-1.68 -0.36,1.919998 -0.88,2.52 -2.14,2.52 l -29.61276,0"
       style="font-size:20px;font-style:normal;font-variant:normal;font-weight:normal;font-stretch:normal;line-height:125%;letter-spacing:0px;word-spacing:0px;fill:#16502d;fill-opacity:1;stroke:none;font-family:Symbol;-inkscape-font-specification:Symbol" />
  </g>
</svg>
